<svg xmlns="http://www.w3.org/2000/svg" version="1.1" xmlns:xlink="http://www.w3.org/1999/xlink" xmlns:svgjs="http://svgjs.com/svgjs" width="1440" height="560" preserveAspectRatio="none" viewBox="0 0 1440 560"><g mask="url(&quot;#SvgjsMask1021&quot;)" fill="none"><rect width="1440" height="560" x="0" y="0" fill="rgba(38, 179, 255, 1)"></rect><path d="M1560 560L0 560 L0 338.18Q68.19 286.38, 120 354.57Q123.68 286.25, 192 289.92Q252.31 278.23, 264 338.53Q308.96 263.49, 384 308.45Q409.58 262.03, 456 287.61Q549.14 260.75, 576 353.89Q617.75 323.64, 648 365.39Q696.78 294.17, 768 342.95Q798.79 301.74, 840 332.52Q896.36 316.88, 912 373.23Q944.47 285.7, 1032 318.16Q1112.85 279.01, 1152 359.86Q1161.78 297.64, 1224 307.43Q1253.33 264.76, 1296 294.09Q1352.17 278.26, 1368 334.44Q1394.37 288.81, 1440 315.17Q1489.82 244.99, 1560 294.81z" fill="rgba(67, 206, 255, 1)"></path><path d="M1512 560L0 560 L0 380.73Q61.25 321.98, 120 383.22Q193.46 336.69, 240 410.15Q305.29 355.44, 360 420.73Q403.54 344.27, 480 387.81Q526.59 314.39, 600 360.98Q681.39 322.37, 720 403.76Q788.85 352.61, 840 421.45Q880.31 341.76, 960 382.08Q1026.58 328.65, 1080 395.23Q1150.28 345.51, 1200 415.8Q1271.66 367.47, 1320 439.13Q1325.9 373.03, 1392 378.94Q1445 311.94, 1512 364.94z" fill="rgba(118, 203, 255, 1)"></path><path d="M1464 560L0 560 L0 429.72Q90.71 400.43, 120 491.14Q137.65 436.79, 192 454.45Q236.64 379.09, 312 423.72Q369.74 409.46, 384 467.19Q432.66 395.85, 504 444.5Q586.04 406.54, 624 488.58Q667.02 459.6, 696 502.61Q696.84 431.44, 768 432.28Q821.94 366.22, 888 420.16Q954.77 414.94, 960 481.71Q997.27 398.98, 1080 436.25Q1148.06 384.31, 1200 452.37Q1254.53 434.89, 1272 489.42Q1321.35 418.76, 1392 468.11Q1409.85 413.96, 1464 431.81z" fill="rgba(199, 224, 255, 1)"></path><path d="M1464 560L0 560 L0 494.55Q64.64 487.19, 72 551.82Q138.4 498.22, 192 564.62Q201.79 502.41, 264 512.21Q335.52 463.73, 384 535.25Q403.39 482.64, 456 502.03Q526.23 452.26, 576 522.49Q644.58 519.07, 648 587.64Q665.39 533.03, 720 550.43Q743.9 502.33, 792 526.22Q811.55 473.77, 864 493.33Q949.41 458.74, 984 544.15Q1029.34 469.49, 1104 514.83Q1190.64 481.47, 1224 568.11Q1277.45 501.56, 1344 555Q1387.55 478.55, 1464 522.09z" fill="white"></path></g><defs><mask id="SvgjsMask1021"><rect width="1440" height="560" fill="#ffffff"></rect></mask></defs></svg>